<svg id="svg" version="1.1" xmlns="http://www.w3.org/2000/svg" xmlns:xlink="http://www.w3.org/1999/xlink" width="400" height="418.6046511627907" viewBox="0, 0, 400,418.6046511627907"><g id="svgg"><path id="path0" d="M153.023 19.098 C 116.504 19.662,103.063 20.949,88.115 25.315 C 45.176 37.858,20.071 70.747,15.841 120.000 C 13.609 145.980,13.611 262.335,15.843 289.302 C 20.688 347.850,55.084 382.988,113.256 388.817 C 135.711 391.067,251.076 391.381,281.163 389.274 C 339.625 385.179,375.423 353.475,383.272 298.843 C 387.113 272.104,387.227 139.159,383.432 111.395 C 376.306 59.258,343.187 27.278,289.767 20.953 C 273.335 19.008,212.415 18.181,153.023 19.098 M249.535 52.561 C 285.418 53.326,295.649 54.498,308.724 59.340 C 334.583 68.916,348.448 90.190,351.139 124.419 C 353.259 151.386,353.103 263.127,350.911 287.412 C 347.105 329.583,325.103 351.663,283.010 355.552 C 255.920 358.054,133.664 357.721,112.558 355.087 C 74.728 350.366,53.809 328.909,49.555 290.465 C 46.496 262.813,46.832 137.808,50.026 115.116 C 54.943 80.191,75.434 59.625,110.233 54.687 C 126.065 52.440,194.694 51.393,249.535 52.561 M293.605 83.974 C 277.084 88.423,271.653 108.896,283.767 121.060 C 297.828 135.178,321.442 125.353,321.442 105.383 C 321.442 90.831,307.619 80.201,293.605 83.974 M191.628 109.589 C 156.974 113.762,129.687 132.363,114.850 161.928 C 83.032 225.328,129.158 300.066,200.060 299.991 C 280.130 299.907,324.265 207.844,274.418 144.884 C 255.401 120.864,220.732 106.084,191.628 109.589 M209.549 143.476 C 259.659 151.603,279.618 212.469,243.966 248.428 C 208.330 284.370,146.966 264.393,138.824 214.200 C 132.193 173.316,168.665 136.844,209.549 143.476 " stroke="none" fill="#000000" fill-rule="evenodd"></path></g></svg>