<?xml version="1.0" standalone="no"?>
<!DOCTYPE svg PUBLIC "-//W3C//DTD SVG 20010904//EN"
 "http://www.w3.org/TR/2001/REC-SVG-20010904/DTD/svg10.dtd">
<svg version="1.0" xmlns="http://www.w3.org/2000/svg"
 width="980.000000pt" height="903.000000pt" viewBox="0 0 980.000000 903.000000"
 preserveAspectRatio="xMidYMid meet">

<g transform="translate(0.000000,903.000000) scale(0.100000,-0.100000)"
fill="#000000" stroke="none">
<path d="M1161 8509 c-41 -5 -116 -20 -168 -34 -244 -65 -415 -165 -603 -354
-193 -193 -300 -388 -363 -656 l-22 -90 -3 -2800 c-2 -2029 0 -2827 8 -2899
35 -305 158 -555 384 -782 227 -227 477 -349 782 -384 72 -8 1109 -10 3789 -8
l3690 3 90 22 c272 63 465 171 660 367 203 204 317 413 372 684 17 82 18 250
18 2927 0 2350 -2 2853 -14 2915 -33 182 -127 403 -233 545 -73 99 -239 260
-331 323 -141 97 -291 162 -472 205 l-90 22 -3710 1 c-2041 1 -3743 -2 -3784
-7z m7417 -893 c13 -5 22 -12 20 -17 -5 -14 -3690 -2960 -3699 -2957 -4 2
-835 665 -1845 1473 -1010 809 -1842 1473 -1848 1477 -16 10 -4 18 45 27 57
12 7297 8 7327 -3z m-5780 -2439 c1544 -1235 1894 -1510 1940 -1528 120 -45
273 -34 378 26 23 14 885 699 1915 1524 l1874 1501 3 -2448 c1 -1619 -1 -2466
-8 -2502 -31 -170 -182 -316 -359 -350 -77 -14 -7206 -14 -7285 1 -88 16 -163
56 -231 124 -68 66 -109 141 -125 224 -16 86 -14 4956 3 4944 6 -6 859 -688
1895 -1516z"/>
</g>
</svg>
