<?xml version="1.0" standalone="no"?>
<!DOCTYPE svg PUBLIC "-//W3C//DTD SVG 20010904//EN"
 "http://www.w3.org/TR/2001/REC-SVG-20010904/DTD/svg10.dtd">
<svg version="1.0" xmlns="http://www.w3.org/2000/svg"
 width="900.000000pt" height="900.000000pt" viewBox="0 0 900.000000 900.000000"
 preserveAspectRatio="xMidYMid meet">

<g transform="translate(0.000000,900.000000) scale(0.100000,-0.100000)"
fill="#000000" stroke="none">
<path d="M872 4498 l3 -3703 673 -3 672 -2 0 3705 0 3705 -675 0 -675 0 2
-3702z"/>
<path d="M5665 8194 c-409 -32 -723 -115 -1060 -279 -520 -254 -933 -648
-1217 -1160 -383 -687 -447 -1542 -173 -2291 88 -241 276 -574 435 -770 461
-567 1071 -912 1805 -1021 167 -24 560 -24 730 1 880 128 1614 629 2053 1401
162 287 283 660 328 1010 21 172 22 497 0 666 -57 449 -204 847 -451 1214
-451 671 -1150 1105 -1947 1209 -118 16 -410 27 -503 20z"/>
</g>
</svg>
