<?xml version="1.0" encoding="UTF-8"?>
<!DOCTYPE svg PUBLIC "-//W3C//DTD SVG 1.1//EN" "http://www.w3.org/Graphics/SVG/1.1/DTD/svg11.dtd">
<svg xmlns="http://www.w3.org/2000/svg" version="1.1" width="300px" height="300px" style="shape-rendering:geometricPrecision; text-rendering:geometricPrecision; image-rendering:optimizeQuality; fill-rule:evenodd; clip-rule:evenodd" xmlns:xlink="http://www.w3.org/1999/xlink">
<g><path style="opacity:0.012" fill="#000000" d="M 177.5,44.5 C 199.329,43.3371 221.329,43.1705 243.5,44C 221.503,44.5 199.503,44.6666 177.5,44.5 Z"/></g>
<g><path style="opacity:0.012" fill="#000000" d="M 173.5,44.5 C 174.833,45.1667 174.833,45.1667 173.5,44.5 Z"/></g>
<g><path style="opacity:0.012" fill="#000000" d="M 245.5,45.5 C 245.897,44.475 246.563,44.3083 247.5,45C 246.906,45.4643 246.239,45.631 245.5,45.5 Z"/></g>
<g><path style="opacity:0.012" fill="#000000" d="M 171.5,45.5 C 172.833,46.1667 172.833,46.1667 171.5,45.5 Z"/></g>
<g><path style="opacity:0.95" fill="#000000" d="M 249.5,47.5 C 249.833,48.5 250.5,49.1667 251.5,49.5C 251.892,51.1789 252.392,52.8455 253,54.5C 253.667,77.1667 253.667,99.8333 253,122.5C 252.392,124.154 251.892,125.821 251.5,127.5C 250.123,128.556 249.29,129.889 249,131.5C 248.026,129.122 247.359,129.456 247,132.5C 246.667,131.833 246.333,131.167 246,130.5C 244.333,131.833 242.667,131.833 241,130.5C 240.692,131.308 240.192,131.975 239.5,132.5C 238.235,129.958 236.402,127.291 234,124.5C 233.667,109.5 233.333,94.5 233,79.5C 181.833,130.667 130.667,181.833 79.5,233C 94.5,233.333 109.5,233.667 124.5,234C 130.286,236.87 132.286,241.37 130.5,247.5C 129.662,247.842 129.328,248.508 129.5,249.5C 127.473,251.18 125.139,252.347 122.5,253C 99.8333,253.667 77.1667,253.667 54.5,253C 52.8455,252.392 51.1789,251.892 49.5,251.5C 47.8196,249.473 46.6529,247.139 46,244.5C 45.3333,221.833 45.3333,199.167 46,176.5C 46.7384,173.352 48.2384,170.685 50.5,168.5C 56.989,166.496 61.8223,168.496 65,174.5C 65.3333,189.5 65.6667,204.5 66,219.5C 117.167,168.333 168.333,117.167 219.5,66C 205.5,65.3333 191.5,65.3333 177.5,66C 190.5,66.3333 203.5,66.6667 216.5,67C 215.956,67.7172 215.289,68.2172 214.5,68.5C 201.344,67.5044 188.01,67.1711 174.5,67.5C 174.512,64.858 173.179,63.5246 170.5,63.5C 165.52,55.2908 167.52,49.4575 176.5,46C 199.167,45.3333 221.833,45.3333 244.5,46C 246.154,46.6077 247.821,47.1077 249.5,47.5 Z"/></g>
<g><path style="opacity:0.012" fill="#000000" d="M 249.5,46.5 C 248.833,45.1667 248.833,45.1667 249.5,46.5 Z"/></g>
<g><path style="opacity:0.012" fill="#000000" d="M 249.5,46.5 C 250.833,47.1667 250.833,47.1667 249.5,46.5 Z"/></g>
<g><path style="opacity:0.012" fill="#000000" d="M 252.5,49.5 C 251.833,48.1667 251.833,48.1667 252.5,49.5 Z"/></g>
<g><path style="opacity:0.012" fill="#000000" d="M 167.5,49.5 C 168.833,50.1667 168.833,50.1667 167.5,49.5 Z"/></g>
<g><path style="opacity:0.012" fill="#000000" d="M 252.5,49.5 C 253.833,50.1667 253.833,50.1667 252.5,49.5 Z"/></g>
<g><path style="opacity:0.012" fill="#000000" d="M 166.5,51.5 C 167.833,52.1667 167.833,52.1667 166.5,51.5 Z"/></g>
<g><path style="opacity:0.012" fill="#000000" d="M 253.5,51.5 C 254.525,51.8966 254.692,52.5632 254,53.5C 253.536,52.9056 253.369,52.2389 253.5,51.5 Z"/></g>
<g><path style="opacity:0.012" fill="#000000" d="M 165.5,54.5 C 166.573,55.2506 166.74,56.2506 166,57.5C 165.517,56.552 165.351,55.552 165.5,54.5 Z"/></g>
<g><path style="opacity:0.012" fill="#000000" d="M 254.5,55.5 C 255.663,77.3295 255.83,99.3295 255,121.5C 254.5,99.5025 254.333,77.5025 254.5,55.5 Z"/></g>
<g><path style="opacity:0.012" fill="#000000" d="M 166.5,58.5 C 167.525,58.8966 167.692,59.5632 167,60.5C 166.536,59.9056 166.369,59.2389 166.5,58.5 Z"/></g>
<g><path style="opacity:0.012" fill="#000000" d="M 169.5,63.5 C 168.833,62.1667 168.833,62.1667 169.5,63.5 Z"/></g>
<g><path style="opacity:0.012" fill="#000000" d="M 169.5,63.5 C 169.833,63.5 170.167,63.5 170.5,63.5C 170.315,64.1701 169.981,64.1701 169.5,63.5 Z"/></g>
<g><path style="opacity:0.012" fill="#000000" d="M 172.5,65.5 C 173.833,66.1667 173.833,66.1667 172.5,65.5 Z"/></g>
<g><path style="opacity:0.012" fill="#000000" d="M 214.5,68.5 C 213.833,69.1667 213.833,69.1667 214.5,68.5 Z"/></g>
<g><path style="opacity:0.012" fill="#000000" d="M 213.5,69.5 C 212.833,70.1667 212.833,70.1667 213.5,69.5 Z"/></g>
<g><path style="opacity:0.012" fill="#000000" d="M 212.5,70.5 C 211.833,71.1667 211.833,71.1667 212.5,70.5 Z"/></g>
<g><path style="opacity:0.012" fill="#000000" d="M 211.5,71.5 C 210.833,72.1667 210.833,72.1667 211.5,71.5 Z"/></g>
<g><path style="opacity:0.012" fill="#000000" d="M 210.5,72.5 C 209.833,73.1667 209.833,73.1667 210.5,72.5 Z"/></g>
<g><path style="opacity:0.012" fill="#000000" d="M 209.5,73.5 C 208.833,74.1667 208.833,74.1667 209.5,73.5 Z"/></g>
<g><path style="opacity:0.012" fill="#000000" d="M 208.5,74.5 C 207.833,75.1667 207.833,75.1667 208.5,74.5 Z"/></g>
<g><path style="opacity:0.012" fill="#000000" d="M 207.5,75.5 C 206.833,76.1667 206.833,76.1667 207.5,75.5 Z"/></g>
<g><path style="opacity:0.012" fill="#000000" d="M 206.5,76.5 C 205.833,77.1667 205.833,77.1667 206.5,76.5 Z"/></g>
<g><path style="opacity:0.012" fill="#000000" d="M 205.5,77.5 C 204.833,78.1667 204.833,78.1667 205.5,77.5 Z"/></g>
<g><path style="opacity:0.012" fill="#000000" d="M 204.5,78.5 C 203.833,79.1667 203.833,79.1667 204.5,78.5 Z"/></g>
<g><path style="opacity:0.012" fill="#000000" d="M 203.5,79.5 C 202.833,80.1667 202.833,80.1667 203.5,79.5 Z"/></g>
<g><path style="opacity:0.012" fill="#000000" d="M 202.5,80.5 C 201.833,81.1667 201.833,81.1667 202.5,80.5 Z"/></g>
<g><path style="opacity:0.012" fill="#000000" d="M 201.5,81.5 C 200.833,82.1667 200.833,82.1667 201.5,81.5 Z"/></g>
<g><path style="opacity:0.012" fill="#000000" d="M 200.5,82.5 C 199.833,83.1667 199.833,83.1667 200.5,82.5 Z"/></g>
<g><path style="opacity:0.013" fill="#000000" d="M 230.5,84.5 C 230.783,83.7109 231.283,83.0442 232,82.5C 232.667,96.5 232.667,110.5 232,124.5C 231.831,110.994 231.331,97.6604 230.5,84.5 Z"/></g>
<g><path style="opacity:0.012" fill="#000000" d="M 199.5,83.5 C 198.833,84.1667 198.833,84.1667 199.5,83.5 Z"/></g>
<g><path style="opacity:0.012" fill="#000000" d="M 198.5,84.5 C 197.833,85.1667 197.833,85.1667 198.5,84.5 Z"/></g>
<g><path style="opacity:0.012" fill="#000000" d="M 230.5,84.5 C 229.833,85.1667 229.833,85.1667 230.5,84.5 Z"/></g>
<g><path style="opacity:0.012" fill="#000000" d="M 197.5,85.5 C 196.833,86.1667 196.833,86.1667 197.5,85.5 Z"/></g>
<g><path style="opacity:0.012" fill="#000000" d="M 229.5,85.5 C 228.833,86.1667 228.833,86.1667 229.5,85.5 Z"/></g>
<g><path style="opacity:0.012" fill="#000000" d="M 196.5,86.5 C 195.833,87.1667 195.833,87.1667 196.5,86.5 Z"/></g>
<g><path style="opacity:0.012" fill="#000000" d="M 228.5,86.5 C 227.833,87.1667 227.833,87.1667 228.5,86.5 Z"/></g>
<g><path style="opacity:0.012" fill="#000000" d="M 195.5,87.5 C 194.833,88.1667 194.833,88.1667 195.5,87.5 Z"/></g>
<g><path style="opacity:0.012" fill="#000000" d="M 227.5,87.5 C 226.833,88.1667 226.833,88.1667 227.5,87.5 Z"/></g>
<g><path style="opacity:0.012" fill="#000000" d="M 194.5,88.5 C 193.833,89.1667 193.833,89.1667 194.5,88.5 Z"/></g>
<g><path style="opacity:0.012" fill="#000000" d="M 226.5,88.5 C 225.833,89.1667 225.833,89.1667 226.5,88.5 Z"/></g>
<g><path style="opacity:0.012" fill="#000000" d="M 193.5,89.5 C 192.833,90.1667 192.833,90.1667 193.5,89.5 Z"/></g>
<g><path style="opacity:0.012" fill="#000000" d="M 225.5,89.5 C 224.833,90.1667 224.833,90.1667 225.5,89.5 Z"/></g>
<g><path style="opacity:0.012" fill="#000000" d="M 192.5,90.5 C 191.833,91.1667 191.833,91.1667 192.5,90.5 Z"/></g>
<g><path style="opacity:0.012" fill="#000000" d="M 224.5,90.5 C 223.833,91.1667 223.833,91.1667 224.5,90.5 Z"/></g>
<g><path style="opacity:0.012" fill="#000000" d="M 191.5,91.5 C 190.833,92.1667 190.833,92.1667 191.5,91.5 Z"/></g>
<g><path style="opacity:0.012" fill="#000000" d="M 223.5,91.5 C 222.833,92.1667 222.833,92.1667 223.5,91.5 Z"/></g>
<g><path style="opacity:0.012" fill="#000000" d="M 190.5,92.5 C 189.833,93.1667 189.833,93.1667 190.5,92.5 Z"/></g>
<g><path style="opacity:0.012" fill="#000000" d="M 222.5,92.5 C 221.833,93.1667 221.833,93.1667 222.5,92.5 Z"/></g>
<g><path style="opacity:0.012" fill="#000000" d="M 189.5,93.5 C 188.833,94.1667 188.833,94.1667 189.5,93.5 Z"/></g>
<g><path style="opacity:0.012" fill="#000000" d="M 221.5,93.5 C 220.833,94.1667 220.833,94.1667 221.5,93.5 Z"/></g>
<g><path style="opacity:0.012" fill="#000000" d="M 188.5,94.5 C 187.833,95.1667 187.833,95.1667 188.5,94.5 Z"/></g>
<g><path style="opacity:0.012" fill="#000000" d="M 220.5,94.5 C 219.833,95.1667 219.833,95.1667 220.5,94.5 Z"/></g>
<g><path style="opacity:0.012" fill="#000000" d="M 187.5,95.5 C 186.833,96.1667 186.833,96.1667 187.5,95.5 Z"/></g>
<g><path style="opacity:0.012" fill="#000000" d="M 219.5,95.5 C 218.833,96.1667 218.833,96.1667 219.5,95.5 Z"/></g>
<g><path style="opacity:0.012" fill="#000000" d="M 186.5,96.5 C 185.833,97.1667 185.833,97.1667 186.5,96.5 Z"/></g>
<g><path style="opacity:0.012" fill="#000000" d="M 218.5,96.5 C 217.833,97.1667 217.833,97.1667 218.5,96.5 Z"/></g>
<g><path style="opacity:0.012" fill="#000000" d="M 185.5,97.5 C 184.833,98.1667 184.833,98.1667 185.5,97.5 Z"/></g>
<g><path style="opacity:0.012" fill="#000000" d="M 217.5,97.5 C 216.833,98.1667 216.833,98.1667 217.5,97.5 Z"/></g>
<g><path style="opacity:0.012" fill="#000000" d="M 184.5,98.5 C 183.833,99.1667 183.833,99.1667 184.5,98.5 Z"/></g>
<g><path style="opacity:0.012" fill="#000000" d="M 216.5,98.5 C 215.833,99.1667 215.833,99.1667 216.5,98.5 Z"/></g>
<g><path style="opacity:0.012" fill="#000000" d="M 183.5,99.5 C 182.833,100.167 182.833,100.167 183.5,99.5 Z"/></g>
<g><path style="opacity:0.012" fill="#000000" d="M 215.5,99.5 C 214.833,100.167 214.833,100.167 215.5,99.5 Z"/></g>
<g><path style="opacity:0.012" fill="#000000" d="M 182.5,100.5 C 181.833,101.167 181.833,101.167 182.5,100.5 Z"/></g>
<g><path style="opacity:0.012" fill="#000000" d="M 214.5,100.5 C 213.833,101.167 213.833,101.167 214.5,100.5 Z"/></g>
<g><path style="opacity:0.012" fill="#000000" d="M 181.5,101.5 C 180.833,102.167 180.833,102.167 181.5,101.5 Z"/></g>
<g><path style="opacity:0.012" fill="#000000" d="M 213.5,101.5 C 212.833,102.167 212.833,102.167 213.5,101.5 Z"/></g>
<g><path style="opacity:0.012" fill="#000000" d="M 180.5,102.5 C 179.833,103.167 179.833,103.167 180.5,102.5 Z"/></g>
<g><path style="opacity:0.012" fill="#000000" d="M 212.5,102.5 C 211.833,103.167 211.833,103.167 212.5,102.5 Z"/></g>
<g><path style="opacity:0.012" fill="#000000" d="M 179.5,103.5 C 178.833,104.167 178.833,104.167 179.5,103.5 Z"/></g>
<g><path style="opacity:0.012" fill="#000000" d="M 211.5,103.5 C 210.833,104.167 210.833,104.167 211.5,103.5 Z"/></g>
<g><path style="opacity:0.012" fill="#000000" d="M 178.5,104.5 C 177.833,105.167 177.833,105.167 178.5,104.5 Z"/></g>
<g><path style="opacity:0.012" fill="#000000" d="M 210.5,104.5 C 209.833,105.167 209.833,105.167 210.5,104.5 Z"/></g>
<g><path style="opacity:0.012" fill="#000000" d="M 177.5,105.5 C 176.833,106.167 176.833,106.167 177.5,105.5 Z"/></g>
<g><path style="opacity:0.012" fill="#000000" d="M 209.5,105.5 C 208.833,106.167 208.833,106.167 209.5,105.5 Z"/></g>
<g><path style="opacity:0.012" fill="#000000" d="M 176.5,106.5 C 175.833,107.167 175.833,107.167 176.5,106.5 Z"/></g>
<g><path style="opacity:0.012" fill="#000000" d="M 208.5,106.5 C 207.833,107.167 207.833,107.167 208.5,106.5 Z"/></g>
<g><path style="opacity:0.012" fill="#000000" d="M 175.5,107.5 C 174.833,108.167 174.833,108.167 175.5,107.5 Z"/></g>
<g><path style="opacity:0.012" fill="#000000" d="M 207.5,107.5 C 206.833,108.167 206.833,108.167 207.5,107.5 Z"/></g>
<g><path style="opacity:0.012" fill="#000000" d="M 174.5,108.5 C 173.833,109.167 173.833,109.167 174.5,108.5 Z"/></g>
<g><path style="opacity:0.012" fill="#000000" d="M 206.5,108.5 C 205.833,109.167 205.833,109.167 206.5,108.5 Z"/></g>
<g><path style="opacity:0.012" fill="#000000" d="M 173.5,109.5 C 172.833,110.167 172.833,110.167 173.5,109.5 Z"/></g>
<g><path style="opacity:0.012" fill="#000000" d="M 205.5,109.5 C 204.833,110.167 204.833,110.167 205.5,109.5 Z"/></g>
<g><path style="opacity:0.012" fill="#000000" d="M 172.5,110.5 C 171.833,111.167 171.833,111.167 172.5,110.5 Z"/></g>
<g><path style="opacity:0.012" fill="#000000" d="M 204.5,110.5 C 203.833,111.167 203.833,111.167 204.5,110.5 Z"/></g>
<g><path style="opacity:0.012" fill="#000000" d="M 171.5,111.5 C 170.833,112.167 170.833,112.167 171.5,111.5 Z"/></g>
<g><path style="opacity:0.012" fill="#000000" d="M 203.5,111.5 C 202.833,112.167 202.833,112.167 203.5,111.5 Z"/></g>
<g><path style="opacity:0.012" fill="#000000" d="M 170.5,112.5 C 169.833,113.167 169.833,113.167 170.5,112.5 Z"/></g>
<g><path style="opacity:0.012" fill="#000000" d="M 202.5,112.5 C 201.833,113.167 201.833,113.167 202.5,112.5 Z"/></g>
<g><path style="opacity:0.012" fill="#000000" d="M 169.5,113.5 C 168.833,114.167 168.833,114.167 169.5,113.5 Z"/></g>
<g><path style="opacity:0.012" fill="#000000" d="M 201.5,113.5 C 200.833,114.167 200.833,114.167 201.5,113.5 Z"/></g>
<g><path style="opacity:0.012" fill="#000000" d="M 168.5,114.5 C 167.833,115.167 167.833,115.167 168.5,114.5 Z"/></g>
<g><path style="opacity:0.012" fill="#000000" d="M 200.5,114.5 C 199.833,115.167 199.833,115.167 200.5,114.5 Z"/></g>
<g><path style="opacity:0.012" fill="#000000" d="M 167.5,115.5 C 166.833,116.167 166.833,116.167 167.5,115.5 Z"/></g>
<g><path style="opacity:0.012" fill="#000000" d="M 199.5,115.5 C 198.833,116.167 198.833,116.167 199.5,115.5 Z"/></g>
<g><path style="opacity:0.012" fill="#000000" d="M 166.5,116.5 C 165.833,117.167 165.833,117.167 166.5,116.5 Z"/></g>
<g><path style="opacity:0.012" fill="#000000" d="M 198.5,116.5 C 197.833,117.167 197.833,117.167 198.5,116.5 Z"/></g>
<g><path style="opacity:0.012" fill="#000000" d="M 165.5,117.5 C 164.833,118.167 164.833,118.167 165.5,117.5 Z"/></g>
<g><path style="opacity:0.012" fill="#000000" d="M 197.5,117.5 C 196.833,118.167 196.833,118.167 197.5,117.5 Z"/></g>
<g><path style="opacity:0.012" fill="#000000" d="M 164.5,118.5 C 163.833,119.167 163.833,119.167 164.5,118.5 Z"/></g>
<g><path style="opacity:0.012" fill="#000000" d="M 196.5,118.5 C 195.833,119.167 195.833,119.167 196.5,118.5 Z"/></g>
<g><path style="opacity:0.012" fill="#000000" d="M 163.5,119.5 C 162.833,120.167 162.833,120.167 163.5,119.5 Z"/></g>
<g><path style="opacity:0.012" fill="#000000" d="M 195.5,119.5 C 194.833,120.167 194.833,120.167 195.5,119.5 Z"/></g>
<g><path style="opacity:0.012" fill="#000000" d="M 162.5,120.5 C 161.833,121.167 161.833,121.167 162.5,120.5 Z"/></g>
<g><path style="opacity:0.012" fill="#000000" d="M 194.5,120.5 C 193.833,121.167 193.833,121.167 194.5,120.5 Z"/></g>
<g><path style="opacity:0.012" fill="#000000" d="M 161.5,121.5 C 160.833,122.167 160.833,122.167 161.5,121.5 Z"/></g>
<g><path style="opacity:0.012" fill="#000000" d="M 193.5,121.5 C 192.833,122.167 192.833,122.167 193.5,121.5 Z"/></g>
<g><path style="opacity:0.012" fill="#000000" d="M 160.5,122.5 C 159.833,123.167 159.833,123.167 160.5,122.5 Z"/></g>
<g><path style="opacity:0.012" fill="#000000" d="M 192.5,122.5 C 191.833,123.167 191.833,123.167 192.5,122.5 Z"/></g>
<g><path style="opacity:0.012" fill="#000000" d="M 159.5,123.5 C 158.833,124.167 158.833,124.167 159.5,123.5 Z"/></g>
<g><path style="opacity:0.012" fill="#000000" d="M 191.5,123.5 C 190.833,124.167 190.833,124.167 191.5,123.5 Z"/></g>
<g><path style="opacity:0.012" fill="#000000" d="M 158.5,124.5 C 157.833,125.167 157.833,125.167 158.5,124.5 Z"/></g>
<g><path style="opacity:0.012" fill="#000000" d="M 190.5,124.5 C 189.833,125.167 189.833,125.167 190.5,124.5 Z"/></g>
<g><path style="opacity:0.012" fill="#000000" d="M 253.5,124.5 C 254.833,125.167 254.833,125.167 253.5,124.5 Z"/></g>
<g><path style="opacity:0.012" fill="#000000" d="M 157.5,125.5 C 156.833,126.167 156.833,126.167 157.5,125.5 Z"/></g>
<g><path style="opacity:0.012" fill="#000000" d="M 189.5,125.5 C 188.833,126.167 188.833,126.167 189.5,125.5 Z"/></g>
<g><path style="opacity:0.012" fill="#000000" d="M 232.5,125.5 C 233.833,126.167 233.833,126.167 232.5,125.5 Z"/></g>
<g><path style="opacity:0.012" fill="#000000" d="M 156.5,126.5 C 155.833,127.167 155.833,127.167 156.5,126.5 Z"/></g>
<g><path style="opacity:0.012" fill="#000000" d="M 188.5,126.5 C 187.833,127.167 187.833,127.167 188.5,126.5 Z"/></g>
<g><path style="opacity:0.012" fill="#000000" d="M 252.5,126.5 C 253.833,127.167 253.833,127.167 252.5,126.5 Z"/></g>
<g><path style="opacity:0.012" fill="#000000" d="M 155.5,127.5 C 154.833,128.167 154.833,128.167 155.5,127.5 Z"/></g>
<g><path style="opacity:0.012" fill="#000000" d="M 187.5,127.5 C 186.833,128.167 186.833,128.167 187.5,127.5 Z"/></g>
<g><path style="opacity:0.012" fill="#000000" d="M 251.5,127.5 C 251.833,127.5 252.167,127.5 252.5,127.5C 252.315,128.17 251.981,128.17 251.5,127.5 Z"/></g>
<g><path style="opacity:0.012" fill="#000000" d="M 154.5,128.5 C 153.833,129.167 153.833,129.167 154.5,128.5 Z"/></g>
<g><path style="opacity:0.012" fill="#000000" d="M 186.5,128.5 C 185.833,129.167 185.833,129.167 186.5,128.5 Z"/></g>
<g><path style="opacity:0.012" fill="#000000" d="M 235.5,129.5 C 234.833,128.167 234.833,128.167 235.5,129.5 Z"/></g>
<g><path style="opacity:0.012" fill="#000000" d="M 153.5,129.5 C 152.833,130.167 152.833,130.167 153.5,129.5 Z"/></g>
<g><path style="opacity:0.012" fill="#000000" d="M 185.5,129.5 C 184.833,130.167 184.833,130.167 185.5,129.5 Z"/></g>
<g><path style="opacity:0.012" fill="#000000" d="M 235.5,129.5 C 236.833,130.167 236.833,130.167 235.5,129.5 Z"/></g>
<g><path style="opacity:0.012" fill="#000000" d="M 152.5,130.5 C 151.833,131.167 151.833,131.167 152.5,130.5 Z"/></g>
<g><path style="opacity:0.012" fill="#000000" d="M 184.5,130.5 C 183.833,131.167 183.833,131.167 184.5,130.5 Z"/></g>
<g><path style="opacity:0.012" fill="#000000" d="M 151.5,131.5 C 150.833,132.167 150.833,132.167 151.5,131.5 Z"/></g>
<g><path style="opacity:0.012" fill="#000000" d="M 183.5,131.5 C 182.833,132.167 182.833,132.167 183.5,131.5 Z"/></g>
<g><path style="opacity:0.012" fill="#000000" d="M 150.5,132.5 C 149.833,133.167 149.833,133.167 150.5,132.5 Z"/></g>
<g><path style="opacity:0.012" fill="#000000" d="M 182.5,132.5 C 181.833,133.167 181.833,133.167 182.5,132.5 Z"/></g>
<g><path style="opacity:0.012" fill="#000000" d="M 241.5,133.5 C 242.251,132.427 243.251,132.26 244.5,133C 243.552,133.483 242.552,133.649 241.5,133.5 Z"/></g>
<g><path style="opacity:0.012" fill="#000000" d="M 149.5,133.5 C 148.833,134.167 148.833,134.167 149.5,133.5 Z"/></g>
<g><path style="opacity:0.012" fill="#000000" d="M 181.5,133.5 C 180.833,134.167 180.833,134.167 181.5,133.5 Z"/></g>
<g><path style="opacity:0.012" fill="#000000" d="M 148.5,134.5 C 147.833,135.167 147.833,135.167 148.5,134.5 Z"/></g>
<g><path style="opacity:0.012" fill="#000000" d="M 180.5,134.5 C 179.833,135.167 179.833,135.167 180.5,134.5 Z"/></g>
<g><path style="opacity:0.012" fill="#000000" d="M 147.5,135.5 C 146.833,136.167 146.833,136.167 147.5,135.5 Z"/></g>
<g><path style="opacity:0.012" fill="#000000" d="M 179.5,135.5 C 178.833,136.167 178.833,136.167 179.5,135.5 Z"/></g>
<g><path style="opacity:0.012" fill="#000000" d="M 146.5,136.5 C 145.833,137.167 145.833,137.167 146.5,136.5 Z"/></g>
<g><path style="opacity:0.012" fill="#000000" d="M 178.5,136.5 C 177.833,137.167 177.833,137.167 178.5,136.5 Z"/></g>
<g><path style="opacity:0.012" fill="#000000" d="M 145.5,137.5 C 144.833,138.167 144.833,138.167 145.5,137.5 Z"/></g>
<g><path style="opacity:0.012" fill="#000000" d="M 177.5,137.5 C 176.833,138.167 176.833,138.167 177.5,137.5 Z"/></g>
<g><path style="opacity:0.012" fill="#000000" d="M 144.5,138.5 C 143.833,139.167 143.833,139.167 144.5,138.5 Z"/></g>
<g><path style="opacity:0.012" fill="#000000" d="M 176.5,138.5 C 175.833,139.167 175.833,139.167 176.5,138.5 Z"/></g>
<g><path style="opacity:0.012" fill="#000000" d="M 143.5,139.5 C 142.833,140.167 142.833,140.167 143.5,139.5 Z"/></g>
<g><path style="opacity:0.012" fill="#000000" d="M 175.5,139.5 C 174.833,140.167 174.833,140.167 175.5,139.5 Z"/></g>
<g><path style="opacity:0.012" fill="#000000" d="M 142.5,140.5 C 141.833,141.167 141.833,141.167 142.5,140.5 Z"/></g>
<g><path style="opacity:0.012" fill="#000000" d="M 174.5,140.5 C 173.833,141.167 173.833,141.167 174.5,140.5 Z"/></g>
<g><path style="opacity:0.012" fill="#000000" d="M 141.5,141.5 C 140.833,142.167 140.833,142.167 141.5,141.5 Z"/></g>
<g><path style="opacity:0.012" fill="#000000" d="M 173.5,141.5 C 172.833,142.167 172.833,142.167 173.5,141.5 Z"/></g>
<g><path style="opacity:0.012" fill="#000000" d="M 140.5,142.5 C 139.833,143.167 139.833,143.167 140.5,142.5 Z"/></g>
<g><path style="opacity:0.012" fill="#000000" d="M 172.5,142.5 C 171.833,143.167 171.833,143.167 172.5,142.5 Z"/></g>
<g><path style="opacity:0.012" fill="#000000" d="M 139.5,143.5 C 138.833,144.167 138.833,144.167 139.5,143.5 Z"/></g>
<g><path style="opacity:0.012" fill="#000000" d="M 171.5,143.5 C 170.833,144.167 170.833,144.167 171.5,143.5 Z"/></g>
<g><path style="opacity:0.012" fill="#000000" d="M 138.5,144.5 C 137.833,145.167 137.833,145.167 138.5,144.5 Z"/></g>
<g><path style="opacity:0.012" fill="#000000" d="M 170.5,144.5 C 169.833,145.167 169.833,145.167 170.5,144.5 Z"/></g>
<g><path style="opacity:0.012" fill="#000000" d="M 137.5,145.5 C 136.833,146.167 136.833,146.167 137.5,145.5 Z"/></g>
<g><path style="opacity:0.012" fill="#000000" d="M 169.5,145.5 C 168.833,146.167 168.833,146.167 169.5,145.5 Z"/></g>
<g><path style="opacity:0.012" fill="#000000" d="M 136.5,146.5 C 135.833,147.167 135.833,147.167 136.5,146.5 Z"/></g>
<g><path style="opacity:0.012" fill="#000000" d="M 168.5,146.5 C 167.833,147.167 167.833,147.167 168.5,146.5 Z"/></g>
<g><path style="opacity:0.012" fill="#000000" d="M 135.5,147.5 C 134.833,148.167 134.833,148.167 135.5,147.5 Z"/></g>
<g><path style="opacity:0.012" fill="#000000" d="M 167.5,147.5 C 166.833,148.167 166.833,148.167 167.5,147.5 Z"/></g>
<g><path style="opacity:0.012" fill="#000000" d="M 134.5,148.5 C 133.833,149.167 133.833,149.167 134.5,148.5 Z"/></g>
<g><path style="opacity:0.012" fill="#000000" d="M 166.5,148.5 C 165.833,149.167 165.833,149.167 166.5,148.5 Z"/></g>
<g><path style="opacity:0.012" fill="#000000" d="M 133.5,149.5 C 132.833,150.167 132.833,150.167 133.5,149.5 Z"/></g>
<g><path style="opacity:0.012" fill="#000000" d="M 165.5,149.5 C 164.833,150.167 164.833,150.167 165.5,149.5 Z"/></g>
<g><path style="opacity:0.012" fill="#000000" d="M 132.5,150.5 C 131.833,151.167 131.833,151.167 132.5,150.5 Z"/></g>
<g><path style="opacity:0.012" fill="#000000" d="M 164.5,150.5 C 163.833,151.167 163.833,151.167 164.5,150.5 Z"/></g>
<g><path style="opacity:0.012" fill="#000000" d="M 131.5,151.5 C 130.833,152.167 130.833,152.167 131.5,151.5 Z"/></g>
<g><path style="opacity:0.012" fill="#000000" d="M 163.5,151.5 C 162.833,152.167 162.833,152.167 163.5,151.5 Z"/></g>
<g><path style="opacity:0.012" fill="#000000" d="M 130.5,152.5 C 129.833,153.167 129.833,153.167 130.5,152.5 Z"/></g>
<g><path style="opacity:0.012" fill="#000000" d="M 162.5,152.5 C 161.833,153.167 161.833,153.167 162.5,152.5 Z"/></g>
<g><path style="opacity:0.012" fill="#000000" d="M 129.5,153.5 C 128.833,154.167 128.833,154.167 129.5,153.5 Z"/></g>
<g><path style="opacity:0.012" fill="#000000" d="M 161.5,153.5 C 160.833,154.167 160.833,154.167 161.5,153.5 Z"/></g>
<g><path style="opacity:0.012" fill="#000000" d="M 128.5,154.5 C 127.833,155.167 127.833,155.167 128.5,154.5 Z"/></g>
<g><path style="opacity:0.012" fill="#000000" d="M 160.5,154.5 C 159.833,155.167 159.833,155.167 160.5,154.5 Z"/></g>
<g><path style="opacity:0.012" fill="#000000" d="M 127.5,155.5 C 126.833,156.167 126.833,156.167 127.5,155.5 Z"/></g>
<g><path style="opacity:0.012" fill="#000000" d="M 159.5,155.5 C 158.833,156.167 158.833,156.167 159.5,155.5 Z"/></g>
<g><path style="opacity:0.012" fill="#000000" d="M 126.5,156.5 C 125.833,157.167 125.833,157.167 126.5,156.5 Z"/></g>
<g><path style="opacity:0.012" fill="#000000" d="M 158.5,156.5 C 157.833,157.167 157.833,157.167 158.5,156.5 Z"/></g>
<g><path style="opacity:0.012" fill="#000000" d="M 125.5,157.5 C 124.833,158.167 124.833,158.167 125.5,157.5 Z"/></g>
<g><path style="opacity:0.012" fill="#000000" d="M 157.5,157.5 C 156.833,158.167 156.833,158.167 157.5,157.5 Z"/></g>
<g><path style="opacity:0.012" fill="#000000" d="M 124.5,158.5 C 123.833,159.167 123.833,159.167 124.5,158.5 Z"/></g>
<g><path style="opacity:0.012" fill="#000000" d="M 156.5,158.5 C 155.833,159.167 155.833,159.167 156.5,158.5 Z"/></g>
<g><path style="opacity:0.012" fill="#000000" d="M 123.5,159.5 C 122.833,160.167 122.833,160.167 123.5,159.5 Z"/></g>
<g><path style="opacity:0.012" fill="#000000" d="M 155.5,159.5 C 154.833,160.167 154.833,160.167 155.5,159.5 Z"/></g>
<g><path style="opacity:0.012" fill="#000000" d="M 122.5,160.5 C 121.833,161.167 121.833,161.167 122.5,160.5 Z"/></g>
<g><path style="opacity:0.012" fill="#000000" d="M 154.5,160.5 C 153.833,161.167 153.833,161.167 154.5,160.5 Z"/></g>
<g><path style="opacity:0.012" fill="#000000" d="M 121.5,161.5 C 120.833,162.167 120.833,162.167 121.5,161.5 Z"/></g>
<g><path style="opacity:0.012" fill="#000000" d="M 153.5,161.5 C 152.833,162.167 152.833,162.167 153.5,161.5 Z"/></g>
<g><path style="opacity:0.012" fill="#000000" d="M 120.5,162.5 C 119.833,163.167 119.833,163.167 120.5,162.5 Z"/></g>
<g><path style="opacity:0.012" fill="#000000" d="M 152.5,162.5 C 151.833,163.167 151.833,163.167 152.5,162.5 Z"/></g>
<g><path style="opacity:0.012" fill="#000000" d="M 119.5,163.5 C 118.833,164.167 118.833,164.167 119.5,163.5 Z"/></g>
<g><path style="opacity:0.012" fill="#000000" d="M 151.5,163.5 C 150.833,164.167 150.833,164.167 151.5,163.5 Z"/></g>
<g><path style="opacity:0.012" fill="#000000" d="M 118.5,164.5 C 117.833,165.167 117.833,165.167 118.5,164.5 Z"/></g>
<g><path style="opacity:0.012" fill="#000000" d="M 150.5,164.5 C 149.833,165.167 149.833,165.167 150.5,164.5 Z"/></g>
<g><path style="opacity:0.012" fill="#000000" d="M 54.5,166.5 C 55.2506,165.427 56.2506,165.26 57.5,166C 56.552,166.483 55.552,166.649 54.5,166.5 Z"/></g>
<g><path style="opacity:0.012" fill="#000000" d="M 117.5,165.5 C 116.833,166.167 116.833,166.167 117.5,165.5 Z"/></g>
<g><path style="opacity:0.012" fill="#000000" d="M 149.5,165.5 C 148.833,166.167 148.833,166.167 149.5,165.5 Z"/></g>
<g><path style="opacity:0.012" fill="#000000" d="M 51.5,166.5 C 52.8333,167.167 52.8333,167.167 51.5,166.5 Z"/></g>
<g><path style="opacity:0.012" fill="#000000" d="M 58.5,167.5 C 58.8966,166.475 59.5632,166.308 60.5,167C 59.9056,167.464 59.2389,167.631 58.5,167.5 Z"/></g>
<g><path style="opacity:0.012" fill="#000000" d="M 116.5,166.5 C 115.833,167.167 115.833,167.167 116.5,166.5 Z"/></g>
<g><path style="opacity:0.012" fill="#000000" d="M 148.5,166.5 C 147.833,167.167 147.833,167.167 148.5,166.5 Z"/></g>
<g><path style="opacity:0.012" fill="#000000" d="M 50.5,168.5 C 49.8333,167.167 49.8333,167.167 50.5,168.5 Z"/></g>
<g><path style="opacity:0.012" fill="#000000" d="M 115.5,167.5 C 114.833,168.167 114.833,168.167 115.5,167.5 Z"/></g>
<g><path style="opacity:0.012" fill="#000000" d="M 147.5,167.5 C 146.833,168.167 146.833,168.167 147.5,167.5 Z"/></g>
<g><path style="opacity:0.012" fill="#000000" d="M 63.5,169.5 C 62.8333,168.167 62.8333,168.167 63.5,169.5 Z"/></g>
<g><path style="opacity:0.012" fill="#000000" d="M 114.5,168.5 C 113.833,169.167 113.833,169.167 114.5,168.5 Z"/></g>
<g><path style="opacity:0.012" fill="#000000" d="M 146.5,168.5 C 145.833,169.167 145.833,169.167 146.5,168.5 Z"/></g>
<g><path style="opacity:0.012" fill="#000000" d="M 63.5,169.5 C 64.8333,170.167 64.8333,170.167 63.5,169.5 Z"/></g>
<g><path style="opacity:0.012" fill="#000000" d="M 113.5,169.5 C 112.833,170.167 112.833,170.167 113.5,169.5 Z"/></g>
<g><path style="opacity:0.012" fill="#000000" d="M 145.5,169.5 C 144.833,170.167 144.833,170.167 145.5,169.5 Z"/></g>
<g><path style="opacity:0.012" fill="#000000" d="M 112.5,170.5 C 111.833,171.167 111.833,171.167 112.5,170.5 Z"/></g>
<g><path style="opacity:0.012" fill="#000000" d="M 144.5,170.5 C 143.833,171.167 143.833,171.167 144.5,170.5 Z"/></g>
<g><path style="opacity:0.012" fill="#000000" d="M 45.5,171.5 C 46.8333,172.167 46.8333,172.167 45.5,171.5 Z"/></g>
<g><path style="opacity:0.012" fill="#000000" d="M 111.5,171.5 C 110.833,172.167 110.833,172.167 111.5,171.5 Z"/></g>
<g><path style="opacity:0.012" fill="#000000" d="M 143.5,171.5 C 142.833,172.167 142.833,172.167 143.5,171.5 Z"/></g>
<g><path style="opacity:0.012" fill="#000000" d="M 65.5,172.5 C 66.8333,173.167 66.8333,173.167 65.5,172.5 Z"/></g>
<g><path style="opacity:0.012" fill="#000000" d="M 110.5,172.5 C 109.833,173.167 109.833,173.167 110.5,172.5 Z"/></g>
<g><path style="opacity:0.012" fill="#000000" d="M 142.5,172.5 C 141.833,173.167 141.833,173.167 142.5,172.5 Z"/></g>
<g><path style="opacity:0.012" fill="#000000" d="M 44.5,173.5 C 45.8333,174.167 45.8333,174.167 44.5,173.5 Z"/></g>
<g><path style="opacity:0.012" fill="#000000" d="M 109.5,173.5 C 108.833,174.167 108.833,174.167 109.5,173.5 Z"/></g>
<g><path style="opacity:0.012" fill="#000000" d="M 141.5,173.5 C 140.833,174.167 140.833,174.167 141.5,173.5 Z"/></g>
<g><path style="opacity:0.013" fill="#000000" d="M 68.5,214.5 C 68.2172,215.289 67.7172,215.956 67,216.5C 66.3333,202.5 66.3333,188.5 67,174.5C 67.169,188.006 67.669,201.34 68.5,214.5 Z"/></g>
<g><path style="opacity:0.012" fill="#000000" d="M 108.5,174.5 C 107.833,175.167 107.833,175.167 108.5,174.5 Z"/></g>
<g><path style="opacity:0.012" fill="#000000" d="M 140.5,174.5 C 139.833,175.167 139.833,175.167 140.5,174.5 Z"/></g>
<g><path style="opacity:0.012" fill="#000000" d="M 107.5,175.5 C 106.833,176.167 106.833,176.167 107.5,175.5 Z"/></g>
<g><path style="opacity:0.012" fill="#000000" d="M 139.5,175.5 C 138.833,176.167 138.833,176.167 139.5,175.5 Z"/></g>
<g><path style="opacity:0.012" fill="#000000" d="M 106.5,176.5 C 105.833,177.167 105.833,177.167 106.5,176.5 Z"/></g>
<g><path style="opacity:0.012" fill="#000000" d="M 138.5,176.5 C 137.833,177.167 137.833,177.167 138.5,176.5 Z"/></g>
<g><path style="opacity:0.012" fill="#000000" d="M 43.5,177.5 C 44.6629,199.329 44.8295,221.329 44,243.5C 43.5,221.503 43.3334,199.503 43.5,177.5 Z"/></g>
<g><path style="opacity:0.012" fill="#000000" d="M 105.5,177.5 C 104.833,178.167 104.833,178.167 105.5,177.5 Z"/></g>
<g><path style="opacity:0.012" fill="#000000" d="M 137.5,177.5 C 136.833,178.167 136.833,178.167 137.5,177.5 Z"/></g>
<g><path style="opacity:0.012" fill="#000000" d="M 104.5,178.5 C 103.833,179.167 103.833,179.167 104.5,178.5 Z"/></g>
<g><path style="opacity:0.012" fill="#000000" d="M 136.5,178.5 C 135.833,179.167 135.833,179.167 136.5,178.5 Z"/></g>
<g><path style="opacity:0.012" fill="#000000" d="M 103.5,179.5 C 102.833,180.167 102.833,180.167 103.5,179.5 Z"/></g>
<g><path style="opacity:0.012" fill="#000000" d="M 135.5,179.5 C 134.833,180.167 134.833,180.167 135.5,179.5 Z"/></g>
<g><path style="opacity:0.012" fill="#000000" d="M 102.5,180.5 C 101.833,181.167 101.833,181.167 102.5,180.5 Z"/></g>
<g><path style="opacity:0.012" fill="#000000" d="M 134.5,180.5 C 133.833,181.167 133.833,181.167 134.5,180.5 Z"/></g>
<g><path style="opacity:0.012" fill="#000000" d="M 101.5,181.5 C 100.833,182.167 100.833,182.167 101.5,181.5 Z"/></g>
<g><path style="opacity:0.012" fill="#000000" d="M 133.5,181.5 C 132.833,182.167 132.833,182.167 133.5,181.5 Z"/></g>
<g><path style="opacity:0.012" fill="#000000" d="M 100.5,182.5 C 99.8333,183.167 99.8333,183.167 100.5,182.5 Z"/></g>
<g><path style="opacity:0.012" fill="#000000" d="M 132.5,182.5 C 131.833,183.167 131.833,183.167 132.5,182.5 Z"/></g>
<g><path style="opacity:0.012" fill="#000000" d="M 99.5,183.5 C 98.8333,184.167 98.8333,184.167 99.5,183.5 Z"/></g>
<g><path style="opacity:0.012" fill="#000000" d="M 131.5,183.5 C 130.833,184.167 130.833,184.167 131.5,183.5 Z"/></g>
<g><path style="opacity:0.012" fill="#000000" d="M 98.5,184.5 C 97.8333,185.167 97.8333,185.167 98.5,184.5 Z"/></g>
<g><path style="opacity:0.012" fill="#000000" d="M 130.5,184.5 C 129.833,185.167 129.833,185.167 130.5,184.5 Z"/></g>
<g><path style="opacity:0.012" fill="#000000" d="M 97.5,185.5 C 96.8333,186.167 96.8333,186.167 97.5,185.5 Z"/></g>
<g><path style="opacity:0.012" fill="#000000" d="M 129.5,185.5 C 128.833,186.167 128.833,186.167 129.5,185.5 Z"/></g>
<g><path style="opacity:0.012" fill="#000000" d="M 96.5,186.5 C 95.8333,187.167 95.8333,187.167 96.5,186.5 Z"/></g>
<g><path style="opacity:0.012" fill="#000000" d="M 128.5,186.5 C 127.833,187.167 127.833,187.167 128.5,186.5 Z"/></g>
<g><path style="opacity:0.012" fill="#000000" d="M 95.5,187.5 C 94.8333,188.167 94.8333,188.167 95.5,187.5 Z"/></g>
<g><path style="opacity:0.012" fill="#000000" d="M 127.5,187.5 C 126.833,188.167 126.833,188.167 127.5,187.5 Z"/></g>
<g><path style="opacity:0.012" fill="#000000" d="M 94.5,188.5 C 93.8333,189.167 93.8333,189.167 94.5,188.5 Z"/></g>
<g><path style="opacity:0.012" fill="#000000" d="M 126.5,188.5 C 125.833,189.167 125.833,189.167 126.5,188.5 Z"/></g>
<g><path style="opacity:0.012" fill="#000000" d="M 93.5,189.5 C 92.8333,190.167 92.8333,190.167 93.5,189.5 Z"/></g>
<g><path style="opacity:0.012" fill="#000000" d="M 125.5,189.5 C 124.833,190.167 124.833,190.167 125.5,189.5 Z"/></g>
<g><path style="opacity:0.012" fill="#000000" d="M 92.5,190.5 C 91.8333,191.167 91.8333,191.167 92.5,190.5 Z"/></g>
<g><path style="opacity:0.012" fill="#000000" d="M 124.5,190.5 C 123.833,191.167 123.833,191.167 124.5,190.5 Z"/></g>
<g><path style="opacity:0.012" fill="#000000" d="M 91.5,191.5 C 90.8333,192.167 90.8333,192.167 91.5,191.5 Z"/></g>
<g><path style="opacity:0.012" fill="#000000" d="M 123.5,191.5 C 122.833,192.167 122.833,192.167 123.5,191.5 Z"/></g>
<g><path style="opacity:0.012" fill="#000000" d="M 90.5,192.5 C 89.8333,193.167 89.8333,193.167 90.5,192.5 Z"/></g>
<g><path style="opacity:0.012" fill="#000000" d="M 122.5,192.5 C 121.833,193.167 121.833,193.167 122.5,192.5 Z"/></g>
<g><path style="opacity:0.012" fill="#000000" d="M 89.5,193.5 C 88.8333,194.167 88.8333,194.167 89.5,193.5 Z"/></g>
<g><path style="opacity:0.012" fill="#000000" d="M 121.5,193.5 C 120.833,194.167 120.833,194.167 121.5,193.5 Z"/></g>
<g><path style="opacity:0.012" fill="#000000" d="M 88.5,194.5 C 87.8333,195.167 87.8333,195.167 88.5,194.5 Z"/></g>
<g><path style="opacity:0.012" fill="#000000" d="M 120.5,194.5 C 119.833,195.167 119.833,195.167 120.5,194.5 Z"/></g>
<g><path style="opacity:0.012" fill="#000000" d="M 87.5,195.5 C 86.8333,196.167 86.8333,196.167 87.5,195.5 Z"/></g>
<g><path style="opacity:0.012" fill="#000000" d="M 119.5,195.5 C 118.833,196.167 118.833,196.167 119.5,195.5 Z"/></g>
<g><path style="opacity:0.012" fill="#000000" d="M 86.5,196.5 C 85.8333,197.167 85.8333,197.167 86.5,196.5 Z"/></g>
<g><path style="opacity:0.012" fill="#000000" d="M 118.5,196.5 C 117.833,197.167 117.833,197.167 118.5,196.5 Z"/></g>
<g><path style="opacity:0.012" fill="#000000" d="M 85.5,197.5 C 84.8333,198.167 84.8333,198.167 85.5,197.5 Z"/></g>
<g><path style="opacity:0.012" fill="#000000" d="M 117.5,197.5 C 116.833,198.167 116.833,198.167 117.5,197.5 Z"/></g>
<g><path style="opacity:0.012" fill="#000000" d="M 84.5,198.5 C 83.8333,199.167 83.8333,199.167 84.5,198.5 Z"/></g>
<g><path style="opacity:0.012" fill="#000000" d="M 116.5,198.5 C 115.833,199.167 115.833,199.167 116.5,198.5 Z"/></g>
<g><path style="opacity:0.012" fill="#000000" d="M 83.5,199.5 C 82.8333,200.167 82.8333,200.167 83.5,199.5 Z"/></g>
<g><path style="opacity:0.012" fill="#000000" d="M 115.5,199.5 C 114.833,200.167 114.833,200.167 115.5,199.5 Z"/></g>
<g><path style="opacity:0.012" fill="#000000" d="M 82.5,200.5 C 81.8333,201.167 81.8333,201.167 82.5,200.5 Z"/></g>
<g><path style="opacity:0.012" fill="#000000" d="M 114.5,200.5 C 113.833,201.167 113.833,201.167 114.5,200.5 Z"/></g>
<g><path style="opacity:0.012" fill="#000000" d="M 81.5,201.5 C 80.8333,202.167 80.8333,202.167 81.5,201.5 Z"/></g>
<g><path style="opacity:0.012" fill="#000000" d="M 113.5,201.5 C 112.833,202.167 112.833,202.167 113.5,201.5 Z"/></g>
<g><path style="opacity:0.012" fill="#000000" d="M 80.5,202.5 C 79.8333,203.167 79.8333,203.167 80.5,202.5 Z"/></g>
<g><path style="opacity:0.012" fill="#000000" d="M 112.5,202.5 C 111.833,203.167 111.833,203.167 112.5,202.5 Z"/></g>
<g><path style="opacity:0.012" fill="#000000" d="M 79.5,203.5 C 78.8333,204.167 78.8333,204.167 79.5,203.5 Z"/></g>
<g><path style="opacity:0.012" fill="#000000" d="M 111.5,203.5 C 110.833,204.167 110.833,204.167 111.5,203.5 Z"/></g>
<g><path style="opacity:0.012" fill="#000000" d="M 78.5,204.5 C 77.8333,205.167 77.8333,205.167 78.5,204.5 Z"/></g>
<g><path style="opacity:0.012" fill="#000000" d="M 110.5,204.5 C 109.833,205.167 109.833,205.167 110.5,204.5 Z"/></g>
<g><path style="opacity:0.012" fill="#000000" d="M 77.5,205.5 C 76.8333,206.167 76.8333,206.167 77.5,205.5 Z"/></g>
<g><path style="opacity:0.012" fill="#000000" d="M 109.5,205.5 C 108.833,206.167 108.833,206.167 109.5,205.5 Z"/></g>
<g><path style="opacity:0.012" fill="#000000" d="M 76.5,206.5 C 75.8333,207.167 75.8333,207.167 76.5,206.5 Z"/></g>
<g><path style="opacity:0.012" fill="#000000" d="M 108.5,206.5 C 107.833,207.167 107.833,207.167 108.5,206.5 Z"/></g>
<g><path style="opacity:0.012" fill="#000000" d="M 75.5,207.5 C 74.8333,208.167 74.8333,208.167 75.5,207.5 Z"/></g>
<g><path style="opacity:0.012" fill="#000000" d="M 107.5,207.5 C 106.833,208.167 106.833,208.167 107.5,207.5 Z"/></g>
<g><path style="opacity:0.012" fill="#000000" d="M 74.5,208.5 C 73.8333,209.167 73.8333,209.167 74.5,208.5 Z"/></g>
<g><path style="opacity:0.012" fill="#000000" d="M 106.5,208.5 C 105.833,209.167 105.833,209.167 106.5,208.5 Z"/></g>
<g><path style="opacity:0.012" fill="#000000" d="M 73.5,209.5 C 72.8333,210.167 72.8333,210.167 73.5,209.5 Z"/></g>
<g><path style="opacity:0.012" fill="#000000" d="M 105.5,209.5 C 104.833,210.167 104.833,210.167 105.5,209.5 Z"/></g>
<g><path style="opacity:0.012" fill="#000000" d="M 72.5,210.5 C 71.8333,211.167 71.8333,211.167 72.5,210.5 Z"/></g>
<g><path style="opacity:0.012" fill="#000000" d="M 104.5,210.5 C 103.833,211.167 103.833,211.167 104.5,210.5 Z"/></g>
<g><path style="opacity:0.012" fill="#000000" d="M 71.5,211.5 C 70.8333,212.167 70.8333,212.167 71.5,211.5 Z"/></g>
<g><path style="opacity:0.012" fill="#000000" d="M 103.5,211.5 C 102.833,212.167 102.833,212.167 103.5,211.5 Z"/></g>
<g><path style="opacity:0.012" fill="#000000" d="M 70.5,212.5 C 69.8333,213.167 69.8333,213.167 70.5,212.5 Z"/></g>
<g><path style="opacity:0.012" fill="#000000" d="M 102.5,212.5 C 101.833,213.167 101.833,213.167 102.5,212.5 Z"/></g>
<g><path style="opacity:0.012" fill="#000000" d="M 69.5,213.5 C 68.8333,214.167 68.8333,214.167 69.5,213.5 Z"/></g>
<g><path style="opacity:0.012" fill="#000000" d="M 101.5,213.5 C 100.833,214.167 100.833,214.167 101.5,213.5 Z"/></g>
<g><path style="opacity:0.012" fill="#000000" d="M 100.5,214.5 C 99.8333,215.167 99.8333,215.167 100.5,214.5 Z"/></g>
<g><path style="opacity:0.012" fill="#000000" d="M 99.5,215.5 C 98.8333,216.167 98.8333,216.167 99.5,215.5 Z"/></g>
<g><path style="opacity:0.012" fill="#000000" d="M 98.5,216.5 C 97.8333,217.167 97.8333,217.167 98.5,216.5 Z"/></g>
<g><path style="opacity:0.012" fill="#000000" d="M 97.5,217.5 C 96.8333,218.167 96.8333,218.167 97.5,217.5 Z"/></g>
<g><path style="opacity:0.012" fill="#000000" d="M 96.5,218.5 C 95.8333,219.167 95.8333,219.167 96.5,218.5 Z"/></g>
<g><path style="opacity:0.012" fill="#000000" d="M 95.5,219.5 C 94.8333,220.167 94.8333,220.167 95.5,219.5 Z"/></g>
<g><path style="opacity:0.012" fill="#000000" d="M 94.5,220.5 C 93.8333,221.167 93.8333,221.167 94.5,220.5 Z"/></g>
<g><path style="opacity:0.012" fill="#000000" d="M 93.5,221.5 C 92.8333,222.167 92.8333,222.167 93.5,221.5 Z"/></g>
<g><path style="opacity:0.012" fill="#000000" d="M 92.5,222.5 C 91.8333,223.167 91.8333,223.167 92.5,222.5 Z"/></g>
<g><path style="opacity:0.012" fill="#000000" d="M 91.5,223.5 C 90.8333,224.167 90.8333,224.167 91.5,223.5 Z"/></g>
<g><path style="opacity:0.012" fill="#000000" d="M 90.5,224.5 C 89.8333,225.167 89.8333,225.167 90.5,224.5 Z"/></g>
<g><path style="opacity:0.012" fill="#000000" d="M 89.5,225.5 C 88.8333,226.167 88.8333,226.167 89.5,225.5 Z"/></g>
<g><path style="opacity:0.012" fill="#000000" d="M 88.5,226.5 C 87.8333,227.167 87.8333,227.167 88.5,226.5 Z"/></g>
<g><path style="opacity:0.012" fill="#000000" d="M 87.5,227.5 C 86.8333,228.167 86.8333,228.167 87.5,227.5 Z"/></g>
<g><path style="opacity:0.012" fill="#000000" d="M 86.5,228.5 C 85.8333,229.167 85.8333,229.167 86.5,228.5 Z"/></g>
<g><path style="opacity:0.012" fill="#000000" d="M 85.5,229.5 C 84.8333,230.167 84.8333,230.167 85.5,229.5 Z"/></g>
<g><path style="opacity:0.013" fill="#000000" d="M 84.5,230.5 C 97.6604,231.331 110.994,231.831 124.5,232C 110.5,232.667 96.5,232.667 82.5,232C 83.0442,231.283 83.7109,230.783 84.5,230.5 Z"/></g>
<g><path style="opacity:0.012" fill="#000000" d="M 125.5,232.5 C 126.833,233.167 126.833,233.167 125.5,232.5 Z"/></g>
<g><path style="opacity:0.012" fill="#000000" d="M 129.5,235.5 C 128.833,234.167 128.833,234.167 129.5,235.5 Z"/></g>
<g><path style="opacity:0.012" fill="#000000" d="M 129.5,235.5 C 130.833,236.167 130.833,236.167 129.5,235.5 Z"/></g>
<g><path style="opacity:0.012" fill="#000000" d="M 131.5,238.5 C 132.525,238.897 132.692,239.563 132,240.5C 131.536,239.906 131.369,239.239 131.5,238.5 Z"/></g>
<g><path style="opacity:0.012" fill="#000000" d="M 132.5,241.5 C 133.573,242.251 133.74,243.251 133,244.5C 132.517,243.552 132.351,242.552 132.5,241.5 Z"/></g>
<g><path style="opacity:0.012" fill="#000000" d="M 44.5,245.5 C 45.525,245.897 45.6917,246.563 45,247.5C 44.5357,246.906 44.369,246.239 44.5,245.5 Z"/></g>
<g><path style="opacity:0.012" fill="#000000" d="M 131.5,246.5 C 132.833,247.167 132.833,247.167 131.5,246.5 Z"/></g>
<g><path style="opacity:0.012" fill="#000000" d="M 130.5,247.5 C 130.833,247.5 131.167,247.5 131.5,247.5C 131.672,248.492 131.338,249.158 130.5,249.5C 130.5,248.833 130.5,248.167 130.5,247.5 Z"/></g>
<g><path style="opacity:0.012" fill="#000000" d="M 45.5,248.5 C 46.8333,249.167 46.8333,249.167 45.5,248.5 Z"/></g>
<g><path style="opacity:0.012" fill="#000000" d="M 129.5,249.5 C 129.833,249.5 130.167,249.5 130.5,249.5C 130.315,250.17 129.981,250.17 129.5,249.5 Z"/></g>
<g><path style="opacity:0.012" fill="#000000" d="M 49.5,251.5 C 49.5,251.833 49.5,252.167 49.5,252.5C 48.8299,252.019 48.8299,251.685 49.5,251.5 Z"/></g>
<g><path style="opacity:0.012" fill="#000000" d="M 49.5,252.5 C 50.8333,253.167 50.8333,253.167 49.5,252.5 Z"/></g>
<g><path style="opacity:0.012" fill="#000000" d="M 126.5,252.5 C 127.833,253.167 127.833,253.167 126.5,252.5 Z"/></g>
<g><path style="opacity:0.012" fill="#000000" d="M 51.5,254.5 C 51.8966,253.475 52.5632,253.308 53.5,254C 52.9056,254.464 52.2389,254.631 51.5,254.5 Z"/></g>
<g><path style="opacity:0.012" fill="#000000" d="M 124.5,253.5 C 125.833,254.167 125.833,254.167 124.5,253.5 Z"/></g>
<g><path style="opacity:0.012" fill="#000000" d="M 55.5,255.5 C 77.3295,254.337 99.3295,254.17 121.5,255C 99.5025,255.5 77.5025,255.667 55.5,255.5 Z"/></g>
</svg>
